<svg width="20" height="20" viewBox="0 0 20 20" fill="none" xmlns="http://www.w3.org/2000/svg">
<path fill-rule="evenodd" clip-rule="evenodd" d="M3.02326 1.39535C2.12419 1.39535 1.39535 2.12419 1.39535 3.02326V16.9767C1.39535 17.8758 2.12419 18.6047 3.02326 18.6047H16.9767C17.8758 18.6047 18.6047 17.8758 18.6047 16.9767V3.02326C18.6047 2.12419 17.8758 1.39535 16.9767 1.39535H3.02326ZM0 3.02326C0 1.35356 1.35356 0 3.02326 0H16.9767C18.6464 0 20 1.35356 20 3.02326V16.9767C20 18.6464 18.6464 20 16.9767 20H3.02326C1.35356 20 0 18.6464 0 16.9767V3.02326ZM15.0999 5.58982C15.3949 5.83765 15.4332 6.27773 15.1854 6.57277L8.67375 14.3247C8.54386 14.4793 8.35336 14.5701 8.15145 14.5735C7.94954 14.577 7.75605 14.4928 7.62096 14.3427L4.83026 11.2419C4.5725 10.9555 4.59572 10.5144 4.88212 10.2566C5.16852 9.99885 5.60965 10.0221 5.86741 10.3085L8.12138 12.8129L14.1169 5.67529C14.3648 5.38025 14.8049 5.34199 15.0999 5.58982Z" fill="black"/>
</svg>
