<svg width="21" height="24" viewBox="0 0 21 24" fill="none" xmlns="http://www.w3.org/2000/svg">
  <path
    d="M7.08088 0C6.87221 0 6.6721 0.0824531 6.52455 0.229221C6.377 0.375988 6.29411 0.575048 6.29411 0.782609C6.29411 0.990169 6.377 1.18923 6.52455 1.336C6.6721 1.48276 6.87221 1.56522 7.08088 1.56522H13.8995C14.1082 1.56522 14.3083 1.48276 14.4558 1.336C14.6034 1.18923 14.6863 0.990169 14.6863 0.782609C14.6863 0.575048 14.6034 0.375988 14.4558 0.229221C14.3083 0.0824531 14.1082 0 13.8995 0H7.08088ZM10.4902 6.78261C10.6989 6.78261 10.899 6.86506 11.0465 7.01183C11.1941 7.1586 11.277 7.35766 11.277 7.56522V13.8261C11.277 14.0336 11.1941 14.2327 11.0465 14.3795C10.899 14.5262 10.6989 14.6087 10.4902 14.6087C10.2815 14.6087 10.0814 14.5262 9.93386 14.3795C9.78631 14.2327 9.70342 14.0336 9.70342 13.8261V7.56522C9.70342 7.35766 9.78631 7.1586 9.93386 7.01183C10.0814 6.86506 10.2815 6.78261 10.4902 6.78261ZM10.4902 3.13043C4.69646 3.13043 0 7.80209 0 13.5652C0 19.3283 4.69646 24 10.4902 24C16.2839 24 20.9804 19.3283 20.9804 13.5652C20.9804 7.80209 16.2839 3.13043 10.4902 3.13043ZM1.57353 13.5652C1.57353 11.2129 2.51296 8.95685 4.18516 7.29349C5.85736 5.63012 8.12534 4.69565 10.4902 4.69565C12.855 4.69565 15.123 5.63012 16.7952 7.29349C18.4674 8.95685 19.4068 11.2129 19.4068 13.5652C19.4068 15.9176 18.4674 18.1736 16.7952 19.8369C15.123 21.5003 12.855 22.4348 10.4902 22.4348C8.12534 22.4348 5.85736 21.5003 4.18516 19.8369C2.51296 18.1736 1.57353 15.9176 1.57353 13.5652ZM19.1761 3.36C19.104 3.28311 19.0172 3.22144 18.9207 3.17866C18.8242 3.13589 18.72 3.11289 18.6143 3.11104C18.5087 3.10918 18.4038 3.12851 18.3058 3.16787C18.2078 3.20723 18.1188 3.26582 18.0441 3.34013C17.9694 3.41445 17.9105 3.50297 17.871 3.60042C17.8314 3.69787 17.812 3.80225 17.8138 3.90733C17.8157 4.01241 17.8388 4.11604 17.8818 4.21204C17.9248 4.30804 17.9868 4.39444 18.0641 4.46609L19.6376 6.0313C19.7097 6.10819 19.7965 6.16987 19.893 6.21264C19.9895 6.25542 20.0937 6.27842 20.1994 6.28027C20.305 6.28212 20.4099 6.26279 20.5079 6.22343C20.6059 6.18407 20.6949 6.12549 20.7696 6.05117C20.8443 5.97685 20.9032 5.88833 20.9427 5.79088C20.9823 5.69344 21.0017 5.58906 20.9999 5.48398C20.998 5.3789 20.9749 5.27526 20.9319 5.17926C20.8889 5.08327 20.8269 4.99686 20.7496 4.92522L19.1761 3.36Z"
    fill="currentColor" />
</svg>